<?xml version="1.0" encoding="utf-8" standalone="no"?>
<!DOCTYPE svg PUBLIC "-//W3C//DTD SVG 1.1//EN"
  "http://www.w3.org/Graphics/SVG/1.1/DTD/svg11.dtd">
<svg xmlns:xlink="http://www.w3.org/1999/xlink" width="431.733543pt" height="323.800157pt" viewBox="0 0 431.733543 323.800157" xmlns="http://www.w3.org/2000/svg" version="1.1">
 <metadata>
  <rdf:RDF xmlns:dc="http://purl.org/dc/elements/1.1/" xmlns:cc="http://creativecommons.org/ns#" xmlns:rdf="http://www.w3.org/1999/02/22-rdf-syntax-ns#">
   <cc:Work>
    <dc:type rdf:resource="http://purl.org/dc/dcmitype/StillImage"/>
    <dc:date>2026-02-25T04:24:49.183813</dc:date>
    <dc:format>image/svg+xml</dc:format>
    <dc:creator>
     <cc:Agent>
      <dc:title>Matplotlib v3.10.8, https://matplotlib.org/</dc:title>
     </cc:Agent>
    </dc:creator>
   </cc:Work>
  </rdf:RDF>
 </metadata>
 <defs>
  <style type="text/css">*{stroke-linejoin: round; stroke-linecap: butt}</style>
 </defs>
 <g id="figure_1">
  <g id="patch_1">
   <path d="M 0 323.800157 
L 431.733543 323.800157 
L 431.733543 0 
L 0 0 
z
" style="fill: #ffffff"/>
  </g>
  <g id="axes_1">
   <g id="patch_2">
    <path d="M 62.494276 266.299646 
L 378.599241 266.299646 
L 378.599241 26.983346 
L 62.494276 26.983346 
z
" style="fill: #ffffff"/>
   </g>
   <g id="matplotlib.axis_1">
    <g id="xtick_1">
     <g id="line2d_1">
      <path d="M 62.494276 266.299646 
L 62.494276 26.983346 
" clip-path="url(#p1e8d435be0)" style="fill: none; stroke-dasharray: 2.96,1.28; stroke-dashoffset: 0; stroke: #b0b0b0; stroke-opacity: 0.3; stroke-width: 0.8"/>
     </g>
     <g id="line2d_2">
      <defs>
       <path id="me7941ecc39" d="M 0 0 
L 0 3.5 
" style="stroke: #000000; stroke-width: 0.8"/>
      </defs>
      <g>
       <use xlink:href="#me7941ecc39" x="62.494276" y="266.299646" style="stroke: #000000; stroke-width: 0.8"/>
      </g>
     </g>
     <g id="text_1">
      <!-- $0$ -->
      <g transform="translate(58.014276 283.937458) scale(0.14 -0.14)">
       <defs>
        <path id="DejaVuSans-30" d="M 2034 4250 
Q 1547 4250 1301 3770 
Q 1056 3291 1056 2328 
Q 1056 1369 1301 889 
Q 1547 409 2034 409 
Q 2525 409 2770 889 
Q 3016 1369 3016 2328 
Q 3016 3291 2770 3770 
Q 2525 4250 2034 4250 
z
M 2034 4750 
Q 2819 4750 3233 4129 
Q 3647 3509 3647 2328 
Q 3647 1150 3233 529 
Q 2819 -91 2034 -91 
Q 1250 -91 836 529 
Q 422 1150 422 2328 
Q 422 3509 836 4129 
Q 1250 4750 2034 4750 
z
" transform="scale(0.015625)"/>
       </defs>
       <use xlink:href="#DejaVuSans-30" transform="translate(0 0.78125)"/>
      </g>
     </g>
    </g>
    <g id="xtick_2">
     <g id="line2d_3">
      <path d="M 378.599241 266.299646 
L 378.599241 26.983346 
" clip-path="url(#p1e8d435be0)" style="fill: none; stroke-dasharray: 2.96,1.28; stroke-dashoffset: 0; stroke: #b0b0b0; stroke-opacity: 0.3; stroke-width: 0.8"/>
     </g>
     <g id="line2d_4">
      <g>
       <use xlink:href="#me7941ecc39" x="378.599241" y="266.299646" style="stroke: #000000; stroke-width: 0.8"/>
      </g>
     </g>
     <g id="text_2">
      <!-- $\arccos(E_{\min})$ -->
      <g transform="translate(336.459241 283.937458) scale(0.14 -0.14)">
       <defs>
        <path id="DejaVuSans-61" d="M 2194 1759 
Q 1497 1759 1228 1600 
Q 959 1441 959 1056 
Q 959 750 1161 570 
Q 1363 391 1709 391 
Q 2188 391 2477 730 
Q 2766 1069 2766 1631 
L 2766 1759 
L 2194 1759 
z
M 3341 1997 
L 3341 0 
L 2766 0 
L 2766 531 
Q 2569 213 2275 61 
Q 1981 -91 1556 -91 
Q 1019 -91 701 211 
Q 384 513 384 1019 
Q 384 1609 779 1909 
Q 1175 2209 1959 2209 
L 2766 2209 
L 2766 2266 
Q 2766 2663 2505 2880 
Q 2244 3097 1772 3097 
Q 1472 3097 1187 3025 
Q 903 2953 641 2809 
L 641 3341 
Q 956 3463 1253 3523 
Q 1550 3584 1831 3584 
Q 2591 3584 2966 3190 
Q 3341 2797 3341 1997 
z
" transform="scale(0.015625)"/>
        <path id="DejaVuSans-72" d="M 2631 2963 
Q 2534 3019 2420 3045 
Q 2306 3072 2169 3072 
Q 1681 3072 1420 2755 
Q 1159 2438 1159 1844 
L 1159 0 
L 581 0 
L 581 3500 
L 1159 3500 
L 1159 2956 
Q 1341 3275 1631 3429 
Q 1922 3584 2338 3584 
Q 2397 3584 2469 3576 
Q 2541 3569 2628 3553 
L 2631 2963 
z
" transform="scale(0.015625)"/>
        <path id="DejaVuSans-63" d="M 3122 3366 
L 3122 2828 
Q 2878 2963 2633 3030 
Q 2388 3097 2138 3097 
Q 1578 3097 1268 2742 
Q 959 2388 959 1747 
Q 959 1106 1268 751 
Q 1578 397 2138 397 
Q 2388 397 2633 464 
Q 2878 531 3122 666 
L 3122 134 
Q 2881 22 2623 -34 
Q 2366 -91 2075 -91 
Q 1284 -91 818 406 
Q 353 903 353 1747 
Q 353 2603 823 3093 
Q 1294 3584 2113 3584 
Q 2378 3584 2631 3529 
Q 2884 3475 3122 3366 
z
" transform="scale(0.015625)"/>
        <path id="DejaVuSans-6f" d="M 1959 3097 
Q 1497 3097 1228 2736 
Q 959 2375 959 1747 
Q 959 1119 1226 758 
Q 1494 397 1959 397 
Q 2419 397 2687 759 
Q 2956 1122 2956 1747 
Q 2956 2369 2687 2733 
Q 2419 3097 1959 3097 
z
M 1959 3584 
Q 2709 3584 3137 3096 
Q 3566 2609 3566 1747 
Q 3566 888 3137 398 
Q 2709 -91 1959 -91 
Q 1206 -91 779 398 
Q 353 888 353 1747 
Q 353 2609 779 3096 
Q 1206 3584 1959 3584 
z
" transform="scale(0.015625)"/>
        <path id="DejaVuSans-73" d="M 2834 3397 
L 2834 2853 
Q 2591 2978 2328 3040 
Q 2066 3103 1784 3103 
Q 1356 3103 1142 2972 
Q 928 2841 928 2578 
Q 928 2378 1081 2264 
Q 1234 2150 1697 2047 
L 1894 2003 
Q 2506 1872 2764 1633 
Q 3022 1394 3022 966 
Q 3022 478 2636 193 
Q 2250 -91 1575 -91 
Q 1294 -91 989 -36 
Q 684 19 347 128 
L 347 722 
Q 666 556 975 473 
Q 1284 391 1588 391 
Q 1994 391 2212 530 
Q 2431 669 2431 922 
Q 2431 1156 2273 1281 
Q 2116 1406 1581 1522 
L 1381 1569 
Q 847 1681 609 1914 
Q 372 2147 372 2553 
Q 372 3047 722 3315 
Q 1072 3584 1716 3584 
Q 2034 3584 2315 3537 
Q 2597 3491 2834 3397 
z
" transform="scale(0.015625)"/>
        <path id="DejaVuSans-28" d="M 1984 4856 
Q 1566 4138 1362 3434 
Q 1159 2731 1159 2009 
Q 1159 1288 1364 580 
Q 1569 -128 1984 -844 
L 1484 -844 
Q 1016 -109 783 600 
Q 550 1309 550 2009 
Q 550 2706 781 3412 
Q 1013 4119 1484 4856 
L 1984 4856 
z
" transform="scale(0.015625)"/>
        <path id="DejaVuSans-Oblique-45" d="M 1081 4666 
L 4031 4666 
L 3928 4134 
L 1606 4134 
L 1338 2753 
L 3566 2753 
L 3463 2222 
L 1234 2222 
L 909 531 
L 3284 531 
L 3181 0 
L 172 0 
L 1081 4666 
z
" transform="scale(0.015625)"/>
        <path id="DejaVuSans-6d" d="M 3328 2828 
Q 3544 3216 3844 3400 
Q 4144 3584 4550 3584 
Q 5097 3584 5394 3201 
Q 5691 2819 5691 2113 
L 5691 0 
L 5113 0 
L 5113 2094 
Q 5113 2597 4934 2840 
Q 4756 3084 4391 3084 
Q 3944 3084 3684 2787 
Q 3425 2491 3425 1978 
L 3425 0 
L 2847 0 
L 2847 2094 
Q 2847 2600 2669 2842 
Q 2491 3084 2119 3084 
Q 1678 3084 1418 2786 
Q 1159 2488 1159 1978 
L 1159 0 
L 581 0 
L 581 3500 
L 1159 3500 
L 1159 2956 
Q 1356 3278 1631 3431 
Q 1906 3584 2284 3584 
Q 2666 3584 2933 3390 
Q 3200 3197 3328 2828 
z
" transform="scale(0.015625)"/>
        <path id="DejaVuSans-69" d="M 603 3500 
L 1178 3500 
L 1178 0 
L 603 0 
L 603 3500 
z
M 603 4863 
L 1178 4863 
L 1178 4134 
L 603 4134 
L 603 4863 
z
" transform="scale(0.015625)"/>
        <path id="DejaVuSans-6e" d="M 3513 2113 
L 3513 0 
L 2938 0 
L 2938 2094 
Q 2938 2591 2744 2837 
Q 2550 3084 2163 3084 
Q 1697 3084 1428 2787 
Q 1159 2491 1159 1978 
L 1159 0 
L 581 0 
L 581 3500 
L 1159 3500 
L 1159 2956 
Q 1366 3272 1645 3428 
Q 1925 3584 2291 3584 
Q 2894 3584 3203 3211 
Q 3513 2838 3513 2113 
z
" transform="scale(0.015625)"/>
        <path id="DejaVuSans-29" d="M 513 4856 
L 1013 4856 
Q 1481 4119 1714 3412 
Q 1947 2706 1947 2009 
Q 1947 1309 1714 600 
Q 1481 -109 1013 -844 
L 513 -844 
Q 928 -128 1133 580 
Q 1338 1288 1338 2009 
Q 1338 2731 1133 3434 
Q 928 4138 513 4856 
z
" transform="scale(0.015625)"/>
       </defs>
       <use xlink:href="#DejaVuSans-61" transform="translate(0 0.125)"/>
       <use xlink:href="#DejaVuSans-72" transform="translate(61.279297 0.125)"/>
       <use xlink:href="#DejaVuSans-63" transform="translate(102.392578 0.125)"/>
       <use xlink:href="#DejaVuSans-63" transform="translate(157.373047 0.125)"/>
       <use xlink:href="#DejaVuSans-6f" transform="translate(212.353516 0.125)"/>
       <use xlink:href="#DejaVuSans-73" transform="translate(273.535156 0.125)"/>
       <use xlink:href="#DejaVuSans-28" transform="translate(325.634766 0.125)"/>
       <use xlink:href="#DejaVuSans-Oblique-45" transform="translate(364.648438 0.125)"/>
       <use xlink:href="#DejaVuSans-6d" transform="translate(427.832031 -16.28125) scale(0.7)"/>
       <use xlink:href="#DejaVuSans-69" transform="translate(496.020508 -16.28125) scale(0.7)"/>
       <use xlink:href="#DejaVuSans-6e" transform="translate(515.46875 -16.28125) scale(0.7)"/>
       <use xlink:href="#DejaVuSans-29" transform="translate(562.568359 0.125)"/>
      </g>
     </g>
    </g>
    <g id="text_3">
     <!-- $\theta$ -->
     <g transform="translate(216.206758 307.486833) scale(0.14 -0.14)">
      <defs>
       <path id="DejaVuSans-Oblique-3b8" d="M 2913 2219 
L 925 2219 
Q 791 1284 928 888 
Q 1100 400 1566 400 
Q 2034 400 2391 891 
Q 2703 1322 2913 2219 
z
M 3009 2750 
Q 3094 3638 2984 3950 
Q 2813 4444 2353 4444 
Q 1875 4444 1525 3956 
Q 1250 3563 1034 2750 
L 3009 2750 
z
M 2444 4913 
Q 3194 4913 3494 4250 
Q 3794 3591 3566 2422 
Q 3341 1256 2781 594 
Q 2225 -72 1475 -72 
Q 722 -72 425 594 
Q 128 1256 353 2422 
Q 581 3591 1134 4250 
Q 1691 4913 2444 4913 
z
" transform="scale(0.015625)"/>
      </defs>
      <use xlink:href="#DejaVuSans-Oblique-3b8" transform="translate(0 0.234375)"/>
     </g>
    </g>
   </g>
   <g id="matplotlib.axis_2">
    <g id="ytick_1">
     <g id="line2d_5">
      <path d="M 62.494276 266.299646 
L 378.599241 266.299646 
" clip-path="url(#p1e8d435be0)" style="fill: none; stroke-dasharray: 2.96,1.28; stroke-dashoffset: 0; stroke: #b0b0b0; stroke-opacity: 0.3; stroke-width: 0.8"/>
     </g>
     <g id="line2d_6">
      <defs>
       <path id="mba61a42ba0" d="M 0 0 
L -3.5 0 
" style="stroke: #000000; stroke-width: 0.8"/>
      </defs>
      <g>
       <use xlink:href="#mba61a42ba0" x="62.494276" y="266.299646" style="stroke: #000000; stroke-width: 0.8"/>
      </g>
     </g>
     <g id="text_4">
      <!-- $0$ -->
      <g transform="translate(47.814276 270.858708) scale(0.12 -0.12)">
       <use xlink:href="#DejaVuSans-30" transform="translate(0 0.78125)"/>
      </g>
     </g>
    </g>
    <g id="ytick_2">
     <g id="line2d_7">
      <path d="M 62.494276 152.339503 
L 378.599241 152.339503 
" clip-path="url(#p1e8d435be0)" style="fill: none; stroke-dasharray: 2.96,1.28; stroke-dashoffset: 0; stroke: #b0b0b0; stroke-opacity: 0.3; stroke-width: 0.8"/>
     </g>
     <g id="line2d_8">
      <g>
       <use xlink:href="#mba61a42ba0" x="62.494276" y="152.339503" style="stroke: #000000; stroke-width: 0.8"/>
      </g>
     </g>
     <g id="text_5">
      <!-- $0.5$ -->
      <g transform="translate(36.294276 156.898566) scale(0.12 -0.12)">
       <defs>
        <path id="DejaVuSans-2e" d="M 684 794 
L 1344 794 
L 1344 0 
L 684 0 
L 684 794 
z
" transform="scale(0.015625)"/>
        <path id="DejaVuSans-35" d="M 691 4666 
L 3169 4666 
L 3169 4134 
L 1269 4134 
L 1269 2991 
Q 1406 3038 1543 3061 
Q 1681 3084 1819 3084 
Q 2600 3084 3056 2656 
Q 3513 2228 3513 1497 
Q 3513 744 3044 326 
Q 2575 -91 1722 -91 
Q 1428 -91 1123 -41 
Q 819 9 494 109 
L 494 744 
Q 775 591 1075 516 
Q 1375 441 1709 441 
Q 2250 441 2565 725 
Q 2881 1009 2881 1497 
Q 2881 1984 2565 2268 
Q 2250 2553 1709 2553 
Q 1456 2553 1204 2497 
Q 953 2441 691 2322 
L 691 4666 
z
" transform="scale(0.015625)"/>
       </defs>
       <use xlink:href="#DejaVuSans-30" transform="translate(0 0.78125)"/>
       <use xlink:href="#DejaVuSans-2e" transform="translate(63.623047 0.78125)"/>
       <use xlink:href="#DejaVuSans-35" transform="translate(95.410156 0.78125)"/>
      </g>
     </g>
    </g>
    <g id="ytick_3">
     <g id="line2d_9">
      <path d="M 62.494276 38.379361 
L 378.599241 38.379361 
" clip-path="url(#p1e8d435be0)" style="fill: none; stroke-dasharray: 2.96,1.28; stroke-dashoffset: 0; stroke: #b0b0b0; stroke-opacity: 0.3; stroke-width: 0.8"/>
     </g>
     <g id="line2d_10">
      <g>
       <use xlink:href="#mba61a42ba0" x="62.494276" y="38.379361" style="stroke: #000000; stroke-width: 0.8"/>
      </g>
     </g>
     <g id="text_6">
      <!-- $1$ -->
      <g transform="translate(47.814276 42.938423) scale(0.12 -0.12)">
       <defs>
        <path id="DejaVuSans-31" d="M 794 531 
L 1825 531 
L 1825 4091 
L 703 3866 
L 703 4441 
L 1819 4666 
L 2450 4666 
L 2450 531 
L 3481 531 
L 3481 0 
L 794 0 
L 794 531 
z
" transform="scale(0.015625)"/>
       </defs>
       <use xlink:href="#DejaVuSans-31" transform="translate(0 0.09375)"/>
      </g>
     </g>
    </g>
    <g id="text_7">
     <!-- $P_{\mathrm{lost}}$ -->
     <g transform="translate(23.382713 159.941496) rotate(-90) scale(0.14 -0.14)">
      <defs>
       <path id="DejaVuSans-Oblique-50" d="M 1081 4666 
L 2541 4666 
Q 3178 4666 3512 4369 
Q 3847 4072 3847 3500 
Q 3847 2731 3353 2303 
Q 2859 1875 1966 1875 
L 1172 1875 
L 806 0 
L 172 0 
L 1081 4666 
z
M 1613 4147 
L 1275 2394 
L 2069 2394 
Q 2606 2394 2893 2669 
Q 3181 2944 3181 3456 
Q 3181 3784 2986 3965 
Q 2791 4147 2438 4147 
L 1613 4147 
z
" transform="scale(0.015625)"/>
       <path id="DejaVuSans-6c" d="M 603 4863 
L 1178 4863 
L 1178 0 
L 603 0 
L 603 4863 
z
" transform="scale(0.015625)"/>
       <path id="DejaVuSans-74" d="M 1172 4494 
L 1172 3500 
L 2356 3500 
L 2356 3053 
L 1172 3053 
L 1172 1153 
Q 1172 725 1289 603 
Q 1406 481 1766 481 
L 2356 481 
L 2356 0 
L 1766 0 
Q 1100 0 847 248 
Q 594 497 594 1153 
L 594 3053 
L 172 3053 
L 172 3500 
L 594 3500 
L 594 4494 
L 1172 4494 
z
" transform="scale(0.015625)"/>
      </defs>
      <use xlink:href="#DejaVuSans-Oblique-50" transform="translate(0 0.09375)"/>
      <use xlink:href="#DejaVuSans-6c" transform="translate(60.302734 -16.3125) scale(0.7)"/>
      <use xlink:href="#DejaVuSans-6f" transform="translate(79.750977 -16.3125) scale(0.7)"/>
      <use xlink:href="#DejaVuSans-73" transform="translate(122.578125 -16.3125) scale(0.7)"/>
      <use xlink:href="#DejaVuSans-74" transform="translate(159.047852 -16.3125) scale(0.7)"/>
     </g>
    </g>
   </g>
   <g id="line2d_11">
    <path d="M 62.494276 266.299646 
L 68.829044 266.196377 
L 75.163813 265.88663 
L 81.498582 265.370583 
L 87.833351 264.648532 
L 94.16812 263.720892 
L 100.502889 262.588196 
L 107.471134 261.106171 
L 114.43938 259.377849 
L 121.407626 257.40443 
L 128.375872 255.187287 
L 135.344117 252.727961 
L 142.312363 250.028162 
L 149.280609 247.089766 
L 156.248854 243.914816 
L 163.2171 240.50552 
L 170.185346 236.864246 
L 177.787069 232.630358 
L 185.388791 228.126917 
L 192.990514 223.357647 
L 200.592236 218.326496 
L 208.193959 213.037624 
L 216.429159 207.022263 
L 224.664358 200.715419 
L 232.899558 194.123213 
L 241.134757 187.252047 
L 250.003433 179.548014 
L 258.87211 171.53687 
L 267.740786 163.227634 
L 277.242939 154.004728 
L 286.745093 144.462291 
L 296.247246 134.612659 
L 306.382876 123.78214 
L 316.518506 112.632518 
L 327.287613 100.454754 
L 338.690197 87.210666 
L 350.092781 73.630796 
L 362.128842 58.960146 
L 374.79838 43.17706 
L 378.599241 38.379361 
L 378.599241 38.379361 
" clip-path="url(#p1e8d435be0)" style="fill: none; stroke: #1f77b4; stroke-width: 2; stroke-linecap: square"/>
   </g>
   <g id="line2d_12">
    <path d="M 62.494276 266.299646 
L 106.204181 266.194058 
L 122.67458 265.921781 
L 135.344117 265.491509 
L 146.113224 264.902505 
L 155.615378 264.159368 
L 163.850577 263.307263 
L 172.085777 262.226626 
L 179.687499 260.99536 
L 186.655745 259.643616 
L 193.623991 258.054059 
L 199.95876 256.382009 
L 206.293528 254.474202 
L 211.99482 252.539593 
L 217.696112 250.383934 
L 223.397404 247.992624 
L 229.098696 245.350888 
L 234.799988 242.443811 
L 239.867803 239.624851 
L 244.935618 236.573785 
L 250.003433 233.280007 
L 255.071248 229.732909 
L 260.139064 225.921909 
L 265.206879 221.83647 
L 270.274694 217.466122 
L 275.342509 212.800479 
L 280.410324 207.82927 
L 285.478139 202.54235 
L 290.545954 196.929729 
L 295.613769 190.981589 
L 300.681584 184.688306 
L 305.749399 178.040472 
L 310.817214 171.028916 
L 315.885029 163.644722 
L 320.952844 155.87925 
L 326.02066 147.724158 
L 331.088475 139.171419 
L 336.15629 130.213343 
L 341.224105 120.842591 
L 346.925397 109.798563 
L 352.626689 98.214113 
L 358.327981 86.080573 
L 364.029273 73.389959 
L 369.730565 60.135006 
L 375.431857 46.30919 
L 378.599241 38.379361 
L 378.599241 38.379361 
" clip-path="url(#p1e8d435be0)" style="fill: none; stroke: #2ca02c; stroke-width: 2; stroke-linecap: square"/>
   </g>
   <g id="line2d_13">
    <path d="M 62.494276 266.299646 
L 146.113224 266.190258 
L 165.117531 265.930582 
L 178.420545 265.540744 
L 189.189652 265.018545 
L 198.691806 264.340194 
L 206.927005 263.535866 
L 214.528728 262.570238 
L 221.496974 261.457632 
L 227.831742 260.223719 
L 233.533034 258.904434 
L 239.234326 257.360654 
L 244.302141 255.777406 
L 249.369957 253.97369 
L 254.437772 251.927086 
L 259.505587 249.613788 
L 263.939925 247.351099 
L 268.374263 244.84717 
L 272.808601 242.083403 
L 277.242939 239.040368 
L 281.677278 235.697812 
L 286.111616 232.034666 
L 289.912477 228.623096 
L 293.713338 224.945679 
L 297.5142 220.987742 
L 301.315061 216.734193 
L 305.115922 212.169533 
L 308.916784 207.277862 
L 312.717645 202.04289 
L 316.518506 196.447949 
L 320.319368 190.476009 
L 324.120229 184.109686 
L 327.92109 177.331265 
L 331.721952 170.122707 
L 335.522813 162.465673 
L 339.323674 154.341543 
L 343.124535 145.731429 
L 346.925397 136.616203 
L 350.726258 126.976513 
L 354.527119 116.792809 
L 358.327981 106.045365 
L 362.128842 94.714306 
L 366.56318 80.730421 
L 370.997518 65.893014 
L 375.431857 50.170035 
L 378.599241 38.379361 
L 378.599241 38.379361 
" clip-path="url(#p1e8d435be0)" style="fill: none; stroke: #d62728; stroke-width: 2; stroke-linecap: square"/>
   </g>
   <g id="line2d_14">
    <path d="M 62.494276 266.299646 
L 177.787069 266.191106 
L 196.791375 265.940033 
L 210.09439 265.547702 
L 220.23002 265.039322 
L 229.098696 264.37419 
L 236.700419 263.582319 
L 243.668665 262.62482 
L 250.003433 261.515971 
L 255.704725 260.283915 
L 260.77254 258.969812 
L 265.840356 257.417458 
L 270.274694 255.83672 
L 274.709032 254.021876 
L 279.14337 251.94527 
L 282.944231 249.934265 
L 286.745093 247.688509 
L 290.545954 245.186188 
L 294.346815 242.40402 
L 298.147677 239.317197 
L 301.948538 235.899337 
L 305.115922 232.778084 
L 308.283307 229.390422 
L 311.450691 225.718425 
L 314.618076 221.743318 
L 317.78546 217.445465 
L 320.952844 212.804346 
L 324.120229 207.798546 
L 327.287613 202.405737 
L 330.454998 196.602664 
L 333.622382 190.365134 
L 336.789767 183.668007 
L 339.957151 176.485179 
L 343.124535 168.789579 
L 346.29192 160.553158 
L 349.459304 151.746888 
L 352.626689 142.340752 
L 355.794073 132.303745 
L 358.961458 121.603872 
L 362.128842 110.208149 
L 365.296226 98.082606 
L 368.463611 85.19229 
L 371.630995 71.501276 
L 374.79838 56.972669 
L 378.599241 38.379361 
L 378.599241 38.379361 
" clip-path="url(#p1e8d435be0)" style="fill: none; stroke: #9467bd; stroke-width: 2; stroke-linecap: square"/>
   </g>
   <g id="line2d_15">
    <path d="M 62.494276 266.299646 
L 202.492667 266.192038 
L 220.863497 265.942339 
L 232.899558 265.573798 
L 242.401711 265.075543 
L 250.63691 264.419108 
L 257.605156 263.637424 
L 263.939925 262.690222 
L 269.641217 261.594773 
L 274.709032 260.384661 
L 279.14337 259.108722 
L 283.577708 257.596215 
L 287.37857 256.083781 
L 291.179431 254.344872 
L 294.980292 252.351066 
L 298.781154 250.071092 
L 301.948538 247.927844 
L 305.115922 245.540496 
L 308.283307 242.885792 
L 311.450691 239.938721 
L 314.618076 236.67242 
L 317.78546 233.058084 
L 320.952844 229.064867 
L 324.120229 224.659783 
L 327.287613 219.807608 
L 330.454998 214.470778 
L 333.622382 208.609285 
L 336.789767 202.180576 
L 339.957151 195.139452 
L 343.124535 187.437957 
L 346.29192 179.025282 
L 349.459304 169.847656 
L 352.626689 159.848248 
L 355.794073 148.967059 
L 358.961458 137.140827 
L 362.128842 124.302926 
L 365.296226 110.383267 
L 368.463611 95.308207 
L 371.630995 79.000454 
L 374.79838 61.378981 
L 377.965764 42.358938 
L 378.599241 38.379361 
L 378.599241 38.379361 
" clip-path="url(#p1e8d435be0)" style="fill: none; stroke: #ff7f0e; stroke-width: 2; stroke-linecap: square"/>
   </g>
   <g id="patch_3">
    <path d="M 62.494276 266.299646 
L 62.494276 26.983346 
" style="fill: none; stroke: #000000; stroke-width: 1.2; stroke-linejoin: miter; stroke-linecap: square"/>
   </g>
   <g id="patch_4">
    <path d="M 62.494276 266.299646 
L 378.599241 266.299646 
" style="fill: none; stroke: #000000; stroke-width: 1.2; stroke-linejoin: miter; stroke-linecap: square"/>
   </g>
   <g id="legend_1">
    <g id="line2d_16">
     <path d="M 72.394276 41.391628 
L 83.394276 41.391628 
L 94.394276 41.391628 
" style="fill: none; stroke: #1f77b4; stroke-width: 2; stroke-linecap: square"/>
    </g>
    <g id="text_8">
     <!-- $X^1$ -->
     <g transform="translate(103.194276 45.241628) scale(0.11 -0.11)">
      <defs>
       <path id="DejaVuSans-Oblique-58" d="M 878 4666 
L 1516 4666 
L 2316 2981 
L 3763 4666 
L 4500 4666 
L 2578 2438 
L 3738 0 
L 3103 0 
L 2163 1966 
L 459 0 
L -275 0 
L 1906 2509 
L 878 4666 
z
" transform="scale(0.015625)"/>
      </defs>
      <use xlink:href="#DejaVuSans-Oblique-58" transform="translate(0 0.684375)"/>
      <use xlink:href="#DejaVuSans-31" transform="translate(75.52263 38.965625) scale(0.7)"/>
     </g>
    </g>
    <g id="line2d_17">
     <path d="M 72.394276 57.537565 
L 83.394276 57.537565 
L 94.394276 57.537565 
" style="fill: none; stroke: #2ca02c; stroke-width: 2; stroke-linecap: square"/>
    </g>
    <g id="text_9">
     <!-- $X^2$ -->
     <g transform="translate(103.194276 61.387565) scale(0.11 -0.11)">
      <defs>
       <path id="DejaVuSans-32" d="M 1228 531 
L 3431 531 
L 3431 0 
L 469 0 
L 469 531 
Q 828 903 1448 1529 
Q 2069 2156 2228 2338 
Q 2531 2678 2651 2914 
Q 2772 3150 2772 3378 
Q 2772 3750 2511 3984 
Q 2250 4219 1831 4219 
Q 1534 4219 1204 4116 
Q 875 4013 500 3803 
L 500 4441 
Q 881 4594 1212 4672 
Q 1544 4750 1819 4750 
Q 2544 4750 2975 4387 
Q 3406 4025 3406 3419 
Q 3406 3131 3298 2873 
Q 3191 2616 2906 2266 
Q 2828 2175 2409 1742 
Q 1991 1309 1228 531 
z
" transform="scale(0.015625)"/>
      </defs>
      <use xlink:href="#DejaVuSans-Oblique-58" transform="translate(0 0.765625)"/>
      <use xlink:href="#DejaVuSans-32" transform="translate(75.52263 39.046875) scale(0.7)"/>
     </g>
    </g>
    <g id="line2d_18">
     <path d="M 72.394276 73.683503 
L 83.394276 73.683503 
L 94.394276 73.683503 
" style="fill: none; stroke: #d62728; stroke-width: 2; stroke-linecap: square"/>
    </g>
    <g id="text_10">
     <!-- $X^3$ -->
     <g transform="translate(103.194276 77.533503) scale(0.11 -0.11)">
      <defs>
       <path id="DejaVuSans-33" d="M 2597 2516 
Q 3050 2419 3304 2112 
Q 3559 1806 3559 1356 
Q 3559 666 3084 287 
Q 2609 -91 1734 -91 
Q 1441 -91 1130 -33 
Q 819 25 488 141 
L 488 750 
Q 750 597 1062 519 
Q 1375 441 1716 441 
Q 2309 441 2620 675 
Q 2931 909 2931 1356 
Q 2931 1769 2642 2001 
Q 2353 2234 1838 2234 
L 1294 2234 
L 1294 2753 
L 1863 2753 
Q 2328 2753 2575 2939 
Q 2822 3125 2822 3475 
Q 2822 3834 2567 4026 
Q 2313 4219 1838 4219 
Q 1578 4219 1281 4162 
Q 984 4106 628 3988 
L 628 4550 
Q 988 4650 1302 4700 
Q 1616 4750 1894 4750 
Q 2613 4750 3031 4423 
Q 3450 4097 3450 3541 
Q 3450 3153 3228 2886 
Q 3006 2619 2597 2516 
z
" transform="scale(0.015625)"/>
      </defs>
      <use xlink:href="#DejaVuSans-Oblique-58" transform="translate(0 0.765625)"/>
      <use xlink:href="#DejaVuSans-33" transform="translate(75.52263 39.046875) scale(0.7)"/>
     </g>
    </g>
    <g id="line2d_19">
     <path d="M 72.394276 89.82944 
L 83.394276 89.82944 
L 94.394276 89.82944 
" style="fill: none; stroke: #9467bd; stroke-width: 2; stroke-linecap: square"/>
    </g>
    <g id="text_11">
     <!-- $X^4$ -->
     <g transform="translate(103.194276 93.67944) scale(0.11 -0.11)">
      <defs>
       <path id="DejaVuSans-34" d="M 2419 4116 
L 825 1625 
L 2419 1625 
L 2419 4116 
z
M 2253 4666 
L 3047 4666 
L 3047 1625 
L 3713 1625 
L 3713 1100 
L 3047 1100 
L 3047 0 
L 2419 0 
L 2419 1100 
L 313 1100 
L 313 1709 
L 2253 4666 
z
" transform="scale(0.015625)"/>
      </defs>
      <use xlink:href="#DejaVuSans-Oblique-58" transform="translate(0 0.684375)"/>
      <use xlink:href="#DejaVuSans-34" transform="translate(75.52263 38.965625) scale(0.7)"/>
     </g>
    </g>
    <g id="line2d_20">
     <path d="M 72.394276 105.975378 
L 83.394276 105.975378 
L 94.394276 105.975378 
" style="fill: none; stroke: #ff7f0e; stroke-width: 2; stroke-linecap: square"/>
    </g>
    <g id="text_12">
     <!-- $X^5$ -->
     <g transform="translate(103.194276 109.825378) scale(0.11 -0.11)">
      <use xlink:href="#DejaVuSans-Oblique-58" transform="translate(0 0.684375)"/>
      <use xlink:href="#DejaVuSans-35" transform="translate(75.52263 38.965625) scale(0.7)"/>
     </g>
    </g>
   </g>
  </g>
 </g>
 <defs>
  <clipPath id="p1e8d435be0">
   <rect x="62.494276" y="26.983346" width="316.104965" height="239.316299"/>
  </clipPath>
 </defs>
</svg>
